<svg width="1280" height="832" xmlns="http://www.w3.org/2000/svg" xmlns:xlink="http://www.w3.org/1999/xlink" overflow="hidden"><defs><clipPath id="clip0"><rect x="0" y="0" width="1280" height="832"/></clipPath></defs><g clip-path="url(#clip0)"><rect x="0" y="0" width="1280" height="832.5" fill="#FFFFFF"/><text font-family="Calibri,Calibri_MSFontService,sans-serif" font-weight="700" font-size="37" transform="matrix(1 0 0 1.0006 27.0091 371)">Legacy<tspan font-size="37" x="129.887" y="0">Boot</tspan><tspan font-size="37" x="-7.67921" y="224.865">Boot with DTB</tspan></text><rect x="747.5" y="327.697" width="501" height="63.0379" stroke="#2F528F" stroke-width="1.33333" stroke-miterlimit="8" fill="#4472C4"/><rect x="747.5" y="551.832" width="501" height="64.0385" stroke="#2F528F" stroke-width="1.33333" stroke-miterlimit="8" fill="#4472C4"/><rect x="779.5" y="327.697" width="101" height="63.0379" stroke="#2F528F" stroke-width="1.33333" stroke-miterlimit="8" fill="#4472C4"/><text fill="#FFFFFF" font-family="Courier New,Courier New_MSFontService,sans-serif" font-weight="400" font-size="24" transform="matrix(1 0 0 1.0006 793.51 365)">ATAGS</text><rect x="779.5" y="551.832" width="101" height="64.0385" stroke="#2F528F" stroke-width="1.33333" stroke-miterlimit="8" fill="#4472C4"/><text fill="#FFFFFF" font-family="Courier New,Courier New_MSFontService,sans-serif" font-weight="400" font-size="24" transform="matrix(1 0 0 1.0006 807.844 590)">DTB</text><rect x="944.5" y="327.697" width="266" height="63.0379" stroke="#2F528F" stroke-width="1.33333" stroke-miterlimit="8" fill="#4472C4"/><text fill="#FFFFFF" font-family="Courier New,Courier New_MSFontService,sans-serif" font-weight="400" font-size="24" transform="matrix(1 0 0 1.0006 1033.83 365)">zImage</text><rect x="943.5" y="551.832" width="266" height="64.0385" stroke="#2F528F" stroke-width="1.33333" stroke-miterlimit="8" fill="#4472C4"/><text fill="#FFFFFF" font-family="Courier New,Courier New_MSFontService,sans-serif" font-weight="400" font-size="24" transform="matrix(1 0 0 1.0006 1033.1 590)">zImage</text><rect x="911.5" y="422.754" width="165" height="38.0229" stroke="#4472C4" stroke-width="1.33333" stroke-miterlimit="8" fill="#FFFFFF"/><text fill="#4472C4" font-family="Calibri,Calibri_MSFontService,sans-serif" font-weight="400" font-size="24" transform="matrix(1 0 0 1.0006 970.147 449)">RAM</text><rect x="260.5" y="327.697" width="133" height="63.0379" stroke="#507E32" stroke-width="1.33333" stroke-miterlimit="8" fill="#70AD47"/><text fill="#FFFFFF" font-family="Courier New,Courier New_MSFontService,sans-serif" font-weight="400" font-size="19" transform="matrix(1 0 0 1.0006 320.828 364)">0<tspan fill="#000000" font-size="24" x="-42.7588" y="-49.97">r0</tspan></text><rect x="405.5" y="327.697" width="133" height="63.0379" stroke="#507E32" stroke-width="1.33333" stroke-miterlimit="8" fill="#70AD47"/><text fill="#FFFFFF" font-family="Courier New,Courier New_MSFontService,sans-serif" font-weight="400" font-size="19" transform="matrix(1 0 0 1.0006 449.465 364)">4828<tspan fill="#000000" font-size="24" x="-26.0089" y="-49.97">r1</tspan></text><rect x="550.5" y="327.697" width="134" height="63.0379" stroke="#507E32" stroke-width="1.33333" stroke-miterlimit="8" fill="#70AD47"/><text fill="#FFFFFF" font-family="Courier New,Courier New_MSFontService,sans-serif" font-weight="400" font-size="19" transform="matrix(1 0 0 1.0006 561.106 364)">0x01000000<tspan fill="#000000" font-size="24" x="7.49109" y="-49.97">r2</tspan></text><rect x="369.5" y="422.754" width="166" height="38.0229" stroke="#70AD47" stroke-width="1.33333" stroke-miterlimit="8" fill="#FFFFFF"/><text fill="#70AD47" font-family="Calibri,Calibri_MSFontService,sans-serif" font-weight="400" font-size="24" transform="matrix(1 0 0 1.0006 385.259 449)">CPU Registers</text><rect x="260.5" y="551.832" width="133" height="64.0385" stroke="#507E32" stroke-width="1.33333" stroke-miterlimit="8" fill="#70AD47"/><text fill="#FFFFFF" font-family="Courier New,Courier New_MSFontService,sans-serif" font-weight="400" font-size="19" transform="matrix(1 0 0 1.0006 320.828 588)">0</text><rect x="405.5" y="551.832" width="133" height="64.0385" stroke="#507E32" stroke-width="1.33333" stroke-miterlimit="8" fill="#70AD47"/><text fill="#FFFFFF" font-family="Courier New,Courier New_MSFontService,sans-serif" font-weight="400" font-size="19" transform="matrix(1 0 0 1.0006 466.215 588)">0</text><rect x="550.5" y="551.832" width="134" height="64.0385" stroke="#507E32" stroke-width="1.33333" stroke-miterlimit="8" fill="#70AD47"/><text fill="#FFFFFF" font-family="Courier New,Courier New_MSFontService,sans-serif" font-weight="400" font-size="19" transform="matrix(1 0 0 1.0006 561.105 588)">0x01000000</text><path d="M0 0 376.619 0.000314961" stroke="#4472C4" stroke-width="0.666667" stroke-miterlimit="8" fill="none" fill-rule="evenodd" transform="matrix(1 0 0 -1.0006 535.5 441.766)"/><path d="M0 0 369.395 0.000419947" stroke="#4472C4" stroke-width="0.666667" stroke-miterlimit="8" fill="none" fill-rule="evenodd" transform="matrix(-1 0 0 1.0006 369.895 441.766)"/><path d="M1076.5 441.766 1280.09 441.766" stroke="#4472C4" stroke-width="0.666667" stroke-miterlimit="8" fill="none" fill-rule="evenodd"/><text font-family="Courier New,Courier New_MSFontService,sans-serif" font-weight="400" font-size="24" transform="matrix(1 0 0 1.0006 278.069 540)">r0<tspan font-size="24" x="145.387" y="-0.999399">r1</tspan><tspan font-size="24" x="290.527" y="-0.999399">r2</tspan><tspan fill="#4D5156" font-size="24" x="481.608" y="-225.864">0x01000000</tspan><tspan fill="#4D5156" font-size="24" x="478.625" y="-0.999399">0x01000000</tspan></text><path d="M832.366 288.674 832.366 264.659 832.699 264.992 617.5 264.992 617.833 264.659 617.833 320.801 617.167 320.801 617.167 264.325 833.033 264.325 833.033 288.674ZM621.5 319.467 617.5 327.472 613.5 319.467Z" fill="#ED7D31"/><path d="M829.383 512.808 829.383 488.794 829.716 489.128 617.5 489.128 617.833 488.794 617.833 545.212 617.167 545.212 617.167 488.46 830.049 488.46 830.049 512.808ZM621.5 543.878 617.5 551.883 613.5 543.878Z" fill="#ED7D31"/><rect x="381.5" y="190.615" width="182" height="62.0373" stroke="#FFC000" stroke-width="1.33333" stroke-miterlimit="8" fill="#FFFFFF"/><text font-family="Calibri,Calibri_MSFontService,sans-serif" font-weight="400" font-size="24" transform="matrix(1 0 0 1.0006 416.131 217)">Machine ID<tspan fill="#AFABAB" font-size="19" x="-24.9333" y="23.9856">e.g., 4828:</tspan><tspan fill="#AFABAB" font-family="Arial,Arial_MSFontService,sans-serif" font-size="19" x="59.7667" y="23.9856">bcm2835</tspan></text><path d="M472.833 252.652 472.833 321.166 472.167 321.166 472.167 252.652ZM476.5 319.831 472.5 327.836 468.5 319.831Z" fill="#ED7D31"/><rect x="381.5" y="691.916" width="182" height="90.0541" stroke="#FFC000" stroke-width="1.33333" stroke-miterlimit="8" fill="#FFFFFF"/><text font-family="Calibri,Calibri_MSFontService,sans-serif" font-weight="400" font-size="24" transform="matrix(1 0 0 1.0006 413.385 719)">Machine ID <tspan fill="#AFABAB" font-size="19" x="-22.1867" y="23.9856">e.g., 4828:</tspan><tspan fill="#AFABAB" font-family="Arial,Arial_MSFontService,sans-serif" font-size="19" x="62.5133" y="23.9856">bcm2835</tspan><tspan font-family="Arial,Arial_MSFontService,sans-serif" font-size="21" x="13.7466" y="49.97">Or Just </tspan><tspan fill="#AFABAB" font-family="Courier New,Courier New_MSFontService,sans-serif" font-size="24" x="88.7466" y="49.97">0</tspan></text><path d="M0.333333-4.58126e-07 0.333429 69.722-0.333237 69.722-0.333333 4.58126e-07ZM4.00009 68.3886 0.000104987 76.3887-3.99991 68.3887Z" fill="#ED7D31" transform="matrix(1 0 0 -1.0006 472.5 692.305)"/><rect x="154.5" y="241.645" width="106" height="39.0235" stroke="#FFC000" stroke-width="1.33333" stroke-miterlimit="8" fill="#FFFFFF"/><text font-family="Courier New,Courier New_MSFontService,sans-serif" font-weight="400" font-size="24" transform="matrix(1 0 0 1.0006 163.188 268)">Fill <tspan fill="#AFABAB" font-size="24" x="71.6667" y="0">0</tspan></text><rect x="154.5" y="654.894" width="106" height="39.0234" stroke="#FFC000" stroke-width="1.33333" stroke-miterlimit="8" fill="#FFFFFF"/><text font-family="Courier New,Courier New_MSFontService,sans-serif" font-weight="400" font-size="24" transform="matrix(1 0 0 1.0006 163.188 681)">Fill <tspan fill="#AFABAB" font-size="24" x="71.6667" y="0">0</tspan></text><path d="M260.52 261.324 266.786 261.701 273.006 262.832 279.161 264.592 285.125 267.041 290.898 269.992 296.419 273.508 301.689 277.526 306.583 281.983 311.036 286.816 315.113 292.025 318.69 297.488 321.703 303.203 324.151 309.107 325.974 315.144 326.888 320.772 326.23 320.879 325.319 315.273 325.329 315.316 323.518 309.316 323.529 309.348 321.093 303.473 321.106 303.5 318.108 297.813 318.124 297.84 314.564 292.403 314.58 292.425 310.52 287.238 310.537 287.258 306.102 282.446 306.123 282.466 301.251 278.029 301.273 278.048 296.027 274.048 296.05 274.064 290.553 270.564 290.58 270.579 284.834 267.642 284.859 267.653 278.925 265.216 278.96 265.228 272.839 263.478 272.87 263.485 266.687 262.36 266.726 262.365 260.48 261.99ZM330.426 319.143 327.147 327.47 322.457 319.849Z" fill="#ED7D31"/><path d="M0.0166459-0.332917 6.28126-0.0196865 12.4979 0.98503 18.6504 2.55454 24.6123 4.75101 30.3837 7.38577 35.9059 10.5234 41.1751 14.1616 46.0678 18.1135 50.5232 22.3806 54.6026 27.0249 58.1813 31.922 61.1962 37.0096 63.6469 42.2882 65.4722 47.7009 66.2401 52.0305 65.5837 52.1469 64.8201 47.842 64.8325 47.8903 63.021 42.5185 63.0346 42.5524 60.5985 37.3055 60.6141 37.3351 57.6159 32.2756 57.6335 32.3024 54.0732 27.4303 54.0919 27.4536 50.0318 22.8314 50.0517 22.8521 45.6169 18.6047 45.638 18.6233 40.7659 14.6881 40.786 14.7031 35.5391 11.0803 35.5638 11.0958 30.0671 7.9727 30.0934 7.98611 24.3468 5.36269 24.37 5.37224 18.4361 3.18605 18.4689 3.19626 12.3476 1.6347 12.3768 1.64077 6.19306 0.641376 6.2296 0.64523-0.0166459 0.332917ZM69.7404 50.3222 66.6474 58.7147 61.7892 51.2048Z" fill="#ED7D31" transform="matrix(1 0 0 -1.0006 260.5 674.605)"/><rect x="750.5" y="713.929" width="502" height="59.0355" stroke="#4472C4" stroke-width="1.33333" stroke-miterlimit="8" fill="#FFFFFF"/><text font-family="Courier New,Courier New_MSFontService,sans-serif" font-weight="400" font-size="13" transform="matrix(1 0 0 1.0006 759.678 731)">00000000  <tspan fill="#FF0000" font-size="13" x="70" y="0">d0 0d fe ed</tspan><tspan font-size="13" x="164" y="0">00 00 bf c2  00 00 00 48 00 00 b0 08</tspan><tspan font-size="13" x="0" y="15.9904">00000010  00 00 00 28 00 00 00 11  00 00 00 10 00 00 00 00</tspan><tspan font-size="13" x="0" y="31.9808">00000020  00 00 0f 00 00 c0  00 00 00 00 00 00 00 00 00 00</tspan><tspan fill="#AFABAB" font-size="24" x="-0.00012207" y="66.9597">dtb</tspan><tspan fill="#AFABAB" font-size="24" x="57.3333" y="66.9597">magic value: 0xd00dfeed</tspan></text><path d="M0 0 29.0642 98.8886" stroke="#4472C4" stroke-width="0.666667" stroke-miterlimit="8" fill="none" fill-rule="evenodd" transform="matrix(-1 0 0 1.0006 779.564 615.87)"/><path d="M880.5 615.87 1252.52 714.818" stroke="#4472C4" stroke-width="0.666667" stroke-miterlimit="8" fill="none" fill-rule="evenodd"/><rect x="626.5" y="23.5142" width="605" height="199.12" stroke="#4472C4" stroke-width="1.33333" stroke-miterlimit="8" fill="#FFFFFF"/><text font-family="Courier New,Courier New_MSFontService,sans-serif" font-weight="400" font-size="15" transform="matrix(1 0 0 1.0006 636.038 41)">#define ATAG_CORE    0x54410001<tspan font-size="15" x="0" y="34.979">/* structures for each </tspan><tspan font-size="15" x="203.167" y="34.979">atag</tspan><tspan font-size="15" x="247.333" y="34.979">*/</tspan><tspan font-size="15" x="0" y="52.9682">struct </tspan><tspan font-size="15" x="61.8333" y="52.9682">atag_header</tspan><tspan font-size="15" x="167.833" y="52.9682">{</tspan><tspan fill="#70AD47" font-size="15" x="35.3333" y="69.9579">u32 size; /* length of tag in words including this header */</tspan><tspan fill="#FF0000" font-size="15" x="35.3333" y="87.9471">u32 tag;  /* tag type */</tspan><tspan font-size="15" x="0" y="104.937">};</tspan><tspan font-size="13" x="0" y="137.917">00000000  </tspan><tspan fill="#70AD47" font-size="13" x="70" y="137.917">00 00 02 00 </tspan><tspan fill="#FF0000" font-size="13" x="164" y="137.917">54 41 00 01</tspan><tspan font-size="13" x="257.5" y="137.917">00 00 00 48 00 00 b0 08</tspan><tspan font-size="13" x="0" y="153.907">00000010  00 00 00 28 00 00 00 11  00 00 00 10 00 00 00 00</tspan><tspan font-size="13" x="0" y="169.898">00000020  00 00 0f ba 00 00 af c0  00 00 00 00 00 00 00 00</tspan></text><path d="M626.5 222.634 779.204 327.592" stroke="#4472C4" stroke-width="0.666667" stroke-miterlimit="8" fill="none" fill-rule="evenodd"/><path d="M0 0 351.903 104.619" stroke="#4472C4" stroke-width="0.666667" stroke-miterlimit="8" fill="none" fill-rule="evenodd" transform="matrix(-1 0 0 1.0006 1232.4 222.634)"/></g></svg>
