<svg xmlns="http://www.w3.org/2000/svg" xmlns:xlink="http://www.w3.org/1999/xlink" viewBox="0 0 1450 700">
<svg xmlns:rdf="http://www.w3.org/1999/02/22-rdf-syntax-ns#" xmlns="http://www.w3.org/2000/svg" version="1.0" xmlns:cc="http://creativecommons.org/ns#" xmlns:dc="http://purl.org/dc/elements/1.1/" viewBox="0 0 600 700" width="600" height="700" x="50">
 <metadata>
  <rdf:RDF>
   <cc:Work rdf:about="">
    <dc:format>image/svg+xml</dc:format>
    <dc:type rdf:resource="http://purl.org/dc/dcmitype/StillImage"/>
    <dc:title/>
   </cc:Work>
  </rdf:RDF>
 </metadata>
 <path d="M495,294.4c-16.1,0-18.8,0.2-29.5,3-13.2,3.5-20.9,7.9-29.9,17-4.6,4.5-6.9,7.4-9.1,11.1-5.5,9.5-9.1,20.3-11.3,34.9-1.2,7.1-1.3,9.7-1.2,27.3,0,18.5,2.2,74.9,3.5,91.8,0.9,11.2,0.5,12.4-8.9,25.5-3.3,4.6-7.9,11.3-10.2,14.9-6.3,9.7-15.2,22.2-22.5,31.8-13.5,17.4-16.9,23.8-25.4,46.9-8.2,22.6-13.2,33.8-25.3,57.3-6.2,11.8-7.8,16.8-8.1,25.2-0.4,7.2,0.6,17.2,1.7,19,0.9,1.2,2,1.5,4.2,0.9-0.3,0.3-0.5,0.5-0.7,0.6-3.5,2.3-7.5,7.2-10,13.4-0.1,0.1-0.1,0.3-0.2,0.4-0.9,1.4-1.9,3.8-3.1,7.5-3.6,10.2-6.6,14.7-12,17.6-4.6,2.5-8.7,3.1-20.7,3.1-12.4,0-15.1,0.6-18.8,3.8-6.6,5.6-7.6,16.7-3.1,32.1,4.1,13.9,3.9,20.3-1.4,35.9-2.9,8.6-3.3,10.4-3.3,14.1,0,2.8,0.3,4.9,0.9,6.2,1.3,2.7,5.4,6,9.4,7.7,4.5,1.7,27.1,7.3,43.3,10.5,25.1,5.1,34.1,7.8,57.4,17.1,20.7,8.2,29.5,11.2,36.5,12.3,3.3,0.5,10.1-0.1,13.2-1.3,3.7-1.3,7.2-3.7,14.9-10.2,13.6-11.4,21-15,36.2-17.4,5.7-0.9,10.9-1,54.4-1,26.4,0,49.7,0.2,51.8,0.5,4.9,0.6,6.8,2.2,10.9,9.4,6.3,11.3,14,16.3,28,18.4,6.6,1,17.9,1.1,23.1,0.3,11.4-1.9,17.1-5.3,30-18.2,15-15.1,29-24.6,48.7-33.2,10-4.4,14.5-6.9,26.3-14.9,14.5-9.8,17.3-12.9,17.3-19.3,0-6.7-3.6-10.9-16.9-19.7-12.7-8.4-18.4-13.5-23.7-21.3-3.7-5.5-5-9.7-5.5-17.9-0.2-3.8-0.6-6.4-1.1-8-0.5-5.7-2.8-12.2-6.9-14.3-5.7-3-7.7-2.1-9.6-0.9,6.4-7.2,8.5-10.6,10.6-16.8,3.7-11,2.9-23.3-3.5-55.3-7.4-37.2-20-63.8-46-97.2-16.5-21.3-23.2-31.9-39.3-62.1-8-15.1-10.3-20.3-12.2-28.4-2.8-11.7-4.1-22.2-6.2-52.1-2-27.9-3.4-39.4-6-49.1-6.9-26.4-27.6-46.4-56.5-54.7-12.3-3.5-17.6-4.2-34.2-4.2z" transform="translate(-200.8403,-238.943)" fill="#FFF"/>
 <g fill="#f8bf11" transform="translate(-200.8403,-238.943)">
  <path d="M552,300.4c0,25.1-29.9,30.4-44.4,39.4-13.5,12.5-91.2,47.8-111.8,47.8-33.1-7-73.4-56.4-78.6-89.2,0-19.1,24.3-34.4,37.9-46.9,13.5-12.5,29.1-24.3,55.7-19.3,20.6,0,52.8,9.8,66.3,22.3,27,9,74.9,14.8,74.9,45.9z" transform="matrix(0.55569,0,0,0.55569,249.6684,292.4824)"/>
  <path d="M7.597,971.1c30.75,14,102.4,31.9,127.6,34.9,16.9,7,128.5,33,154.2,33,38.1-27,44.4-67.9,33.7-109.3-47.5-76.7-84.2-177.2-173-211.8-8.9,4.4-16.2,16.3-19.4,18.3-6.4,4.1-13.5,13-18,24.1-4.7,11.6-9,25.8-14.24,46.5-10.26,20.6-52.15,2-80.84,17-10.46,31.7,7.39,109.9-10.02,147.3z" transform="matrix(0.55569,0,0,0.55569,249.6684,292.4824)"/>
  <path d="M834.2,853.6c19.2,15.7,49.3,27.4,62.9,53.5-25.9,30.9-48.2,41.8-81,57.4-45,21.4-73.2,41.5-93.8,55.5-20.6,18-68.4,29-90.1,26-13.7-9-29.1-118.3-24.1-154,0-19-23.3-95.1,14-141.5,36.1-6.9,67.1,26.1,90,48.6,18.9-12.7,48.8-32.2,71.4-37.1,7.4-1.7,7.7-9.4,23.2-1.3,7.4,3.9,11.7,16.1,12.5,26.5,1.3,16.8,3,52.4,15,66.4z" transform="matrix(0.55569,0,0,0.55569,249.6684,292.4824)"/>
 </g>
 <g transform="translate(-200.8403,-238.943)">
  <g transform="matrix(0.55569,0,0,0.55569,249.6684,292.4824)">
   <path fill="#000" d="M265.5,1063c-12.6-2-28.5-7-65.7-22-42-17-58.1-21-103.3-31-29.1-5-69.91-15.5-77.88-18.7-7.21-2.9-14.7-8.9-16.99-13.8-1.068-2.2-1.63-6.1-1.63-11.1,0-6.8,0.7248-9.8,5.962-25.3,9.516-28.2,9.976-39.7,2.577-64.7-8.194-27.7-6.277-47.7,5.529-57.8,6.67-5.7,11.53-6.7,33.8-6.7,21.64,0,28.95-1.1,37.33-5.7,9.65-5.3,15.08-13.3,21.48-31.7,4.1-11.9,6.8-16.6,9.4-16.6,2.1,0,3.9,5.2,3.9,11.5,0,5.6-6.3,29.2-9.4,35.3-3.3,6.6-7.8,11.7-12.99,14.7-9.68,5.7-28.33,7.2-48.79,4.1-13.07-2.1-20.57-1.6-25.57,1.4-7.4,4.5-8.61,14.6-3.24,27.1,10.4,24.1,12.39,29.3,14.59,37.4,2.61,9.7,3.03,18.2,1.39,28.3-1.63,10-4.5,16.3-12.99,28.2-4.38,6.2-8.39,12.8-8.92,14.8-1.5,5.4,0.71,9.5,6.67,12.6,5.06,2.5,77.22,21.2,128.2,32.7,15.7,4,44.3,11,63.5,16,19.3,5,39.3,9,44.5,10,16.1,2,31,0,41.3-6,14.3-9,24.3-29.7,25.5-53.8,0.8-15.9-2.7-30.2-12-48.7-7.1-14.2-10.6-19.7-44.3-70.6-59.5-89.6-85.3-119.5-107.3-124.1-7.1-1.4-11.8-0.6-21.3,3.7-9.1,4.1-12.2,4.3-14.4,1-2.1-3.2-3.8-21.1-3.2-34.1,0.7-15.1,3.6-24.1,14.6-45.5,21.8-42.2,30.7-62.4,45.6-103,15.3-41.6,21.5-53.1,45.6-84.5,13.2-17.1,29.2-39.7,40.5-57.1,4.3-6.5,12.6-18.6,18.5-26.9,16.8-23.6,17.6-25.8,16-45.9-2.4-30.3-6.4-131.9-6.4-165.1-0.1-31.6,0.1-36.4,2.1-49.2,4.1-26.16,10.5-45.79,20.5-62.79,3.8-6.64,8.1-11.89,16.2-20.07,16.2-16.34,30.2-24.18,53.9-30.38,19.3-5.052,24.2-5.554,53.1-5.528,29.8,0.026,39.3,1.205,61.5,7.583,52,14.94,89.3,50.96,101.8,98.39,4.6,17.5,7.1,38.3,10.7,88.5,3.8,53.7,6.1,72.6,11.2,93.8,3.4,14.4,7.5,23.9,21.9,51,29,54.4,41,73.4,70.7,111.6,46.8,60.2,69.4,108,82.8,175,11.5,57.6,12.9,79.7,6.3,99.6-4,12-7.9,18-21.6,33.1-28.8,31.9-60.9,51.9-82.9,51.9-20,0-38.3-13.6-51.4-38.3-6.1-13.6-5.3-24.5-22.8-20.6-8.5,2.3-15.5,12.6-17.6,25.9-1.6,9.5-1.3,45.9,0.4,55,0.7,4.1,3.1,16.3,5.1,27,3.6,18.5,3.8,20.5,3.8,39.5,0,17.5-0.4,22.8-3.3,42-2.7,18-3.2,24.2-2.9,34,0.4,11.4,0.6,12.5,4,19.6,4.1,9,13.1,19,20.9,24,17.2,11,41.2,12,61.4,2,5.7-3,14-9,28-20,22.7-18.4,39.6-30.1,52.4-36.6,4.9-2.4,16.7-6.9,26.2-10,39.4-12.7,57.4-20.3,67.4-28.6,11.9-9.7,17.6-20.2,15.5-28.1-2.7-9.8-14-16.8-37.1-22.8-17.4-4.6-21.6-6.7-28.7-14.5-6.3-6.9-11.2-16.8-14.8-30-3.5-12.9-4-33.8-1-42,2.1-5.8,4.2-8.5,6.6-8.5,2.8,0,4.2,4.9,5,18,1,14.6,3.3,22.3,10,32.1,9.5,14.1,19.6,23.2,42.5,38.4,23.9,15.8,30.5,23.4,30.5,35.5,0,11.5-5.1,17.1-31.1,34.6-21.3,14.4-29.3,19-47.3,26.8-35.5,15.5-60.7,32.7-87.8,59.7-23.2,23-33.3,30-54,33-9.3,1-29.6,1-41.5-1-25.2-3-38.9-12-50.4-33-7.3-13-10.7-16-19.5-17-3.8,0-45.8-1-93.4-1-78.2,0-87.6,1-97.7,2-27.4,5-40.9,11-65.3,31-13.8,12-20.1,16-26.8,19-5.5,2-17.8,3-23.7,2zm90.2-64.5c2.2-1.9,5.5-6.3,7.4-9.8,3-5.6,3.4-7.3,3.7-15.9,0.7-15.8-2.7-24.7-13.9-36.5-7.7-8.1-8.8-11.6-4.4-13.6,4.1-1.8,9.3,0.5,18.6,8.3,17.6,14.9,28,17.4,66.4,16.6,41.3-1,63.8-5.3,86.5-16.7,14.7-7.4,24.4-15.8,36.7-32.1,8.7-11.4,12.6-15.3,17.5-17.3,8.1-3.4,12.4,3.2,12.2,18.9-0.1,7.3-0.9,11.9-4.2,24.1-9,32.5-11.8,50.8-9.3,60.1,1.5,5.4,6.2,9.5,10.5,9.1,3-0.3,3.1-0.5,3.9-6.3,0.4-3.3,2.1-14.5,3.8-25,1.6-10.4,3.6-23.9,4.5-30,2.1-15.8,3.7-64.8,3.8-118,0.1-45.9,0.1-46,2.5-53,1.9-5.4,3.6-8.1,7.5-12,6.1-6,11.8-8.2,24.7-9.1l8.6-0.7,1.2-6.1c2.9-13.9,11.2-21.8,27.6-26.2,5.3-1.4,10.6-1.9,22-1.9,16.5,0,21.1,1,36,8.2,6.7,3.2,12.5,4.3,12.5,2.4,0-1.5-8.1-9.1-14.6-13.7-3.4-2.5-9.3-5.7-13-7.2-5.1-2.1-7-3.4-7.2-4.9-0.2-1.2,1.3-7.9,3.3-15,5.8-21,7.7-34.3,7.8-54.3,0.2-32.9-5.6-54.7-24.7-91.6-17.7-34.2-36.4-59.3-51.2-68.7-4.3-2.6-9.4-4.4-9.4-3.3,0,0.4,3.6,5.7,7.9,11.9,20.4,28.9,41.6,65.8,50.6,88.3,7.3,18,12.8,42.4,14.5,64.6,2.9,36.4-7,67.5-24,75.1-3.4,1.6-7.2,2.2-15.5,2.4-13.2,0.5-15-0.2-18.5-7.2l-2.5-5-0.6-40c-1.1-68.1-4.3-79.7-40-144.2-11-19.8-13.2-25-17.9-43-9.6-37-18.9-58.7-33.5-78.3-22.3-29.8-25.2-42.2-16.3-69.7,5.7-17.9,5.6-27.1-0.4-33.2-4.4-4.5-7.8-6.1-27.9-12.5-30.5-9.7-44.6-18.4-48.5-29.9-3.9-11.3-1.1-29.7,5.9-38.8,5-6.6,11.4-9.4,21.2-9.4,6.5,0.1,9.1,0.6,13.6,2.6,6.9,3.3,12.4,8,15.2,13.3,3,5.7,2.9,19.2-0.2,29.1-5.1,16.1-4.9,14.4-1.3,17.6,6.5,5.8,16.8,6.3,21.3,0.9,3.9-4.6,5.1-9.3,5.6-22.5,0.6-14.4-0.9-24-6.8-42.1-8.1-24.8-16.2-32-40.7-36-18.3-3-28.3-0.6-37.5,8.9-14.4,15-21.6,38.9-18.7,62.9,1.6,13.3,1.3,13.9-6.2,11.5-6.7-2.1-21.4-3.8-29.9-3.5-9.1,0.4-9.9-0.4-9.9-10.6-0.1-41.5-12.6-64.1-35.5-63.9-15.9,0-28.8,12.1-33.6,31.3-1.9,7.5-1.5,29,0.6,41.5,4.3,24.6,13.6,36.9,20.9,27.3,3-4.1,5.6-9.3,5.6-11,0-0.7-2.3-2.3-5-3.6-3-1.4-5.7-3.6-6.9-5.6-5.7-9.1-8.5-25.4-6.1-34.1,3.1-11,18.2-17.8,28.6-12.9,8.8,4.2,18.2,23.6,17.2,35.8-0.8,9.7-2.6,12.7-11.4,19.2-4.4,3.2-11.5,9-15.9,12.9s-9.8,8.4-12,10c-11.2,8.1-17.5,17.6-17.5,26.6,0,5.9,2.4,9.1,9.9,12.8,5.9,3,11.2,8.2,16.8,16.4,7.5,10.8,16.4,14.2,36.8,14.1,24.9-0.1,47.2-5.4,89-21,22.7-8.5,29-11.2,30.3-13.2,3.7-5.4,8-9.2,10.6-9.2,3.5,0,6.6,3.3,6.6,6.9,0,6.1-9.4,11.1-42,22.2-9.6,3.3-24.5,9.3-33,13.3-17.2,8.2-22,9.9-33.3,12.1-9.3,1.8-30.8,2-42.6,0.4-9.6-1.3-15.4-0.6-14.9,1.9,0.5,2.6,22.7,19.9,27.8,21.8,7.2,2.5,21.4,3,30.6,0.9,13.9-3,57.8-21.9,79.6-34.1,7.3-4.1,11.4-5.8,14-5.8,4.4-0.1,7.8,2.7,7.8,6.2,0,3.8-7.4,10.3-15.5,13.7-14.3,5.8-17.3,7.4-31.5,16.4-19.4,12.4-27.9,18.6-40.7,29.8-13.7,11.9-17.6,13.5-32.8,13.7-12.1,0.1-15.8-1.1-23.7-7.9-6.2-5.3-21-23.7-25.2-31.4-4.4-8-14.2-19.1-16.8-19.1-1.7,0-1.9,0.4-4.8,13-2,9-9.4,26-21.4,49.5-14.4,28.3-15.1,30.8-15.1,60.5,0,24.8,0.6,22.7-11.5,39.5-14.8,20.8-37.8,75.1-43.3,102.5-4.2,20.5-7.1,55.4-6.3,75,0.6,15.6-0.2,20.2-3.9,22.5-3.8,2.4-8.3-0.1-17.6-9.3-14.6-14.7-19.3-26.9-19.2-50.2,0.1-14.8,1.4-26.2,4.3-37.2,2.5-9.4,2.6-12.1,0.3-11.6-2.4,0.4-7.8,11.5-10.4,21.4-1.6,5.9-2.2,12-2.6,24.4-0.4,15.2-0.3,17.4,2.1,28,3,13.3,8.7,25.7,16.6,36.1,12.1,16,73.4,70.4,114.2,101.5,9.8,7.4,20.7,16.7,24.3,20.6,21.6,23.4,17.4,44.8-12.1,61.3-4.6,2.6-8.4,4.9-8.4,5.1s3.8,5.5,8.4,11.6c16.9,22.8,26.7,39.5,30.1,51.2,2.3,7.7,2.2,18.8-0.3,25.9-1,3.2-1.6,5.8-1.2,5.8s2.5-2,4.7-3.5zm17.3-744.6c-3.1-5.9,2.7-11,12.6-11,3.5,0,6.6,0.4,6.9,1,0.7,1.2-2.7,3-5.7,3-1.8,0-2.8,1-4.3,4.3-1.6,3.5-2.5,4.3-5.2,4.5-2.4,0.2-3.4-0.2-4.3-1.8zm59.3-4.3c-5.8-2.1-10.3-5-9.2-6.1,0.3-0.3,3.7-0.8,7.5-1.2,9-0.8,12.4,0.5,12.4,4.5,0,2-0.7,3.4-1.9,4.1-1.1,0.5-2.1,1-2.3,0.9-0.1,0-3.1-1-6.5-2.2zm-208.2,280.3c9.6-9.9,12.3-14.9,11.7-22-0.3-4.9-2.2-6.6-6.2-5.6-2.9,0.7-4.5,3.7-7.1,12.8-1.1,4.4-2.9,7.3-7,11.9-5.5,6.2-6.5,8.5-4.3,10.7,2.3,2.3,4.2,1.2,12.9-7.8zm384.6-168.8c2.1-1.3,6.3-11.6,6.3-15.5,0-3.1-0.6-4.5-3.1-6.8-1.7-1.6-3.5-2.9-4-2.9s-4.4-1.6-8.7-3.7c-5.2-2.5-9.8-5.6-14.3-10-3.6-3.4-7.1-6.3-7.7-6.3s-1.4,1.2-1.8,2.6c-1.1,4.6,0.5,11.7,4.7,20.1,3.6,7.5,4.9,9,13.2,15.8,8.9,7.3,12.2,8.7,15.4,6.7zm-240.6-133.9c1.2-3.1,0.9-5.5-2.2-15.6-1.3-4.4-3.2-8.1-5.2-10.3-2.9-3.1-3.4-3.3-5.7-2.1-3.3,1.8-3,5.8,0.9,10.2,2.9,3.3,5.4,9.6,6.6,16.8,0.8,4.6,4,5.2,5.6,1zm140.9-2.8c2.2-2.6,0.6-15-2.4-19.6-3.1-4.7-10.3-9-16-9.6-3.8-0.5-4.5-0.2-5.6,1.7-1.4,2.6-0.7,3.4,4.2,4.9,6.2,2,11.9,10.5,13.4,19.9,0.6,3.5,1.1,4.2,2.9,4.2,1.3,0,2.8-0.7,3.5-1.5zm6.7-134.7c7.2-4.97,7.7-5.19,14.6-5.37,8.8-0.23,10.7-0.97,10.7-4.07,0-4.83-16.6-19.55-23.6-20.85-7-1.32-9.5,2.48-10.9,16.71-0.6,5.32-1.3,7.54-3.6,10.39-3.1,3.93-3.6,6.24-1.6,8.22,2,2.05,6.3,0.54,14.4-5.03z"/>
  </g>
 </g>
</svg>

<svg x="700" height="700" viewBox="0 0 512 512" width="700" xmlns="http://www.w3.org/2000/svg">
  <g>
    <g>
      <g>
        <g><path d="m251.346 449.356c-4.146 0-7.508-3.361-7.508-7.508v-69.598c0-4.147 3.361-7.508 7.508-7.508s7.508 3.361 7.508 7.508v69.598c0 4.147-3.362 7.508-7.508 7.508z" fill="#0a5b36"/></g>
        <g><path d="m329.118 452.264c-4.147 0-7.508-3.361-7.508-7.508v-108.696c0-4.147 3.361-7.508 7.508-7.508s7.508 3.361 7.508 7.508v108.695c-.001 4.148-3.362 7.509-7.508 7.509z" fill="#0a5b36"/></g>
        <circle cx="246.069" cy="317.045" fill="#0f7a4f" r="67.218"/>
        <path d="m313.288 317.048c0 37.119-30.099 67.218-67.218 67.218-15.839 0-30.399-5.48-41.889-14.65 6.03 1.78 12.41 2.73 19.019 2.73 37.119 0 67.208-30.099 67.208-67.218 0-21.28-9.89-40.259-25.319-52.568 27.86 8.2 48.199 33.969 48.199 64.488z" fill="#0c6842"/>
      </g>
    </g>
    <g>
      <circle cx="349.753" cy="156.451" fill="#158f5e" r="67.218"/>
      <path d="m416.975 156.453c0 37.119-30.099 67.218-67.218 67.218-5.37 0-10.59-.63-15.589-1.82 29.599-7.04 51.618-33.649 51.618-65.398 0-31.759-22.019-58.368-51.618-65.398 5-1.19 10.22-1.82 15.589-1.82 37.119 0 67.218 30.089 67.218 67.218z" fill="#0f7a4f"/>
    </g>
    <g>
      <circle cx="437.805" cy="248.006" fill="#158f5e" r="67.218"/>
      <path d="m505.022 248.01c0 37.119-30.099 67.218-67.218 67.218-6.11 0-12.03-.82-17.659-2.35 32.939-4.34 58.358-32.519 58.358-66.638 0-31.009-20.999-57.118-49.558-64.868 2.9-.38 5.86-.58 8.86-.58 37.118 0 67.217 30.089 67.217 67.218z" fill="#0f7a4f"/>
    </g>
    <g>
      <g>
        <path d="m360.518 449.356c-4.147 0-7.508-3.361-7.508-7.508v-100.249c0-4.147 3.361-7.508 7.508-7.508s7.508 3.361 7.508 7.508v100.249c0 4.147-3.361 7.508-7.508 7.508z" fill="#0f7a4f"/>
        <path d="m394.659 367.423c-28.979 0-52.471-23.492-52.471-52.471v-114.759c0-28.979 23.492-52.471 52.471-52.471 28.979 0 52.471 23.492 52.471 52.471v114.758c0 28.98-23.492 52.472-52.471 52.472z" fill="#d2f0a2"/>
        <path d="m447.134 200.191v114.756c0 28.979-23.499 52.478-52.478 52.478-4.45 0-8.77-.55-12.89-1.6 22.749-5.74 39.589-26.349 39.589-50.878v-114.756c0-14.49-5.87-27.609-15.37-37.099-6.58-6.58-14.899-11.42-24.219-13.77 4.12-1.05 8.44-1.6 12.89-1.6 14.49 0 27.609 5.87 37.109 15.37 9.499 9.49 15.369 22.61 15.369 37.099z" fill="#bcea73"/>
      </g>
      <path d="m416.595 290.18c-2.933-2.931-7.686-2.931-10.618 0l-3.81 3.81v-16.401c0-.001 0-.003 0-.005v-29.351c0-4.147-3.361-7.508-7.508-7.508s-7.508 3.361-7.508 7.508v11.227l-7.571-7.572c-2.932-2.932-7.686-2.933-10.617-.001-2.933 2.932-2.933 7.686-.001 10.617l18.19 18.191v31.415.01 125.657c0 4.147 3.361 7.508 7.508 7.508s7.508-3.361 7.508-7.508v-122.551l14.428-14.428c2.93-2.932 2.93-7.685-.001-10.618z" fill="#a3e440"/>
    </g>
    <g>
      <g>
        <path d="m127.393 236.129c-28.979 0-52.471-23.492-52.471-52.471v-73.452c0-28.979 23.492-52.471 52.471-52.471 28.979 0 52.471 23.492 52.471 52.471v73.452c.001 28.979-23.492 52.471-52.471 52.471z" fill="#d2f0a2"/>
        <path d="m179.863 110.204v73.458c0 28.979-23.489 52.469-52.468 52.469-4.96 0-9.77-.69-14.32-1.98 22.019-6.23 38.149-26.469 38.149-50.488v-73.458c0-14.49-5.87-27.609-15.369-37.099-6.24-6.25-14.05-10.92-22.779-13.389 4.55-1.29 9.36-1.98 14.32-1.98 14.49 0 27.609 5.87 37.099 15.369 9.498 9.489 15.368 22.609 15.368 37.098z" fill="#bcea73"/>
      </g>
      <path d="m149.329 158.886c-2.932-2.931-7.686-2.931-10.617 0l-3.811 3.811v-16.402c0-.001 0-.003 0-.005v-29.35c0-4.147-3.361-7.508-7.508-7.508s-7.508 3.361-7.508 7.508v11.227l-7.572-7.573c-2.932-2.931-7.686-2.931-10.617 0-2.932 2.933-2.932 7.686 0 10.618l18.19 18.19v31.418.005 263.931c0 4.147 3.361 7.508 7.508 7.508s7.508-3.361 7.508-7.508v-260.823l14.428-14.428c2.931-2.933 2.931-7.686-.001-10.619z" fill="#a3e440"/>
      </g>
      <g>
        <circle cx="200.949" cy="253.095" fill="#1ca56f" r="79.666"/>
        <path d="m280.619 253.09c0 43.999-35.669 79.667-79.667 79.667-12.63 0-24.569-2.94-35.179-8.18 37.049-6.84 65.118-39.309 65.118-78.337 0-31.369-18.129-58.498-44.479-71.488 4.71-.87 9.57-1.32 14.54-1.32 43.998 0 79.667 35.669 79.667 79.658z" fill="#158f5e"/>
        <path d="m224.279 216.655c-2.932-2.931-7.686-2.932-10.617.001l-5.205 5.204v-8.667c0-4.147-3.361-7.508-7.508-7.508s-7.508 3.361-7.508 7.508v79.458c0 4.147 3.361 7.508 7.508 7.508s7.508-3.361 7.508-7.508v-49.557l15.822-15.823c2.932-2.931 2.932-7.683 0-10.616z" fill="#0f7a4f"/>
        <g>
          <path d="m200.949 452.264c-4.146 0-7.508-3.361-7.508-7.508v-71.292c0-4.147 3.361-7.508 7.508-7.508s7.508 3.361 7.508 7.508v71.292c0 4.147-3.361 7.508-7.508 7.508z" fill="#0f7a4f"/>
        </g>
      </g>
      <g>
        <path d="m349.753 270.126c0 92.327-23.688 90.68-52.909 90.68s-52.909 1.647-52.909-90.68 29.857-196.494 52.909-196.494 52.909 104.167 52.909 196.494z" fill="#a3e440"/>
        <path d="m349.753 270.126c0 92.327-23.688 90.68-52.909 90.68s-52.909 1.647-52.909-90.68 29.857-196.494 52.909-196.494 52.909 104.167 52.909 196.494z" fill="#a3e440"/>
        <path d="m349.748 270.124c0 92.332-23.682 90.681-52.904 90.681-4.759 0-9.381.046-13.774-.287 22.535-1.675 39.13-13.132 39.13-90.394 0-74.591-19.496-156.899-39.13-185.777 4.668-6.87 9.347-10.712 13.774-10.712 23.051.001 52.904 104.169 52.904 196.489z" fill="#99d53b"/>
        <path d="m328.708 279.854c-2.933-2.931-7.686-2.931-10.618 0l-13.738 13.738v-28.744c0-.003 0-.007 0-.01v-33.816c0-4.147-3.361-7.508-7.508-7.508s-7.508 3.361-7.508 7.508v15.695l-10.678-10.678c-2.933-2.931-7.686-2.931-10.618 0-2.932 2.933-2.932 7.686 0 10.618l21.296 21.296v43.76.01 130.125c0 4.147 3.361 7.508 7.508 7.508s7.508-3.361 7.508-7.508v-127.02l24.356-24.356c2.932-2.932 2.932-7.685 0-10.618z" fill="#88ba31"/>
      </g>
      <g>
        <path d="m8.038 337.498c0 71.114 32.054 69.845 71.594 69.845s71.594 1.269 71.594-69.845-40.401-151.346-71.594-151.346-71.594 80.232-71.594 151.346z" fill="#a3e440"/>
        <path d="m8.038 337.498c0 71.114 32.054 69.845 71.594 69.845s71.594 1.269 71.594-69.845-40.401-151.346-71.594-151.346-71.594 80.232-71.594 151.346z" fill="#99d53b"/>
        <path d="m151.223 337.497c0 71.118-32.049 69.848-71.588 69.848-5.14 0-10.14.02-14.969-.1 32.349-.79 56.618-7.87 56.618-69.748 0-60.098-28.849-126.706-56.618-145.895 5.09-3.53 10.14-5.45 14.969-5.45 31.19 0 71.588 80.228 71.588 151.345z" fill="#8dc637"/>
      </g>
      <g>
        <path d="m219.496 340.171c0 52.554-23.688 51.616-52.909 51.616s-52.909.938-52.909-51.616 29.857-111.846 52.909-111.846 52.909 59.292 52.909 111.846z" fill="#a3e440"/>
        <path d="m219.496 340.171c0 52.554-23.688 51.616-52.909 51.616s-52.909.938-52.909-51.616 29.857-111.846 52.909-111.846 52.909 59.292 52.909 111.846z" fill="#a3e440"/>
        <path d="m219.491 340.167c0 52.558-23.679 51.618-52.908 51.618-5.45 0-10.7.03-15.649-.26 21.579-1.25 37.259-8.6 37.259-51.358 0-41.109-18.269-86.337-37.259-104.097 5.28-4.94 10.63-7.75 15.649-7.75 23.059.001 52.908 59.299 52.908 111.847z" fill="#99d53b"/>
        <path d="m198.451 326.323c-2.931-2.931-7.685-2.931-10.617 0l-13.739 13.739v-36.756c0-4.147-3.361-7.508-7.508-7.508s-7.508 3.361-7.508 7.508v54.879.005 83.659c0 4.147 3.361 7.508 7.508 7.508s7.508-3.361 7.508-7.508v-80.552l24.356-24.356c2.932-2.932 2.932-7.685 0-10.618z" fill="#88ba31"/>
      </g>
      <g>
        <path d="m501.49 365.772c0 37.876-17.072 37.201-38.132 37.201s-38.132.676-38.132-37.201 21.518-80.609 38.132-80.609 38.132 42.733 38.132 80.609z" fill="#a3e440"/>
        <path d="m501.49 365.772c0 37.876-17.072 37.201-38.132 37.201s-38.132.676-38.132-37.201 21.518-80.609 38.132-80.609 38.132 42.733 38.132 80.609z" fill="#a3e440"/>
        <path d="m501.492 365.776c0 37.869-17.079 37.199-38.139 37.199-4.48 0-8.78.03-12.77-.29 14.78-1.17 25.349-7.1 25.349-36.909 0-28.549-12.22-59.848-25.349-73.548 4.28-4.48 8.67-7.07 12.77-7.07 16.62.001 38.139 42.739 38.139 80.618z" fill="#99d53b"/>
        <path d="m483.198 358.915c-2.931-2.931-7.685-2.932-10.617.001l-1.715 1.715v-21.427c0-4.147-3.361-7.508-7.508-7.508s-7.508 3.361-7.508 7.508v39.552.005 63.089c0 4.147 3.361 7.508 7.508 7.508s7.508-3.361 7.508-7.508v-59.982l12.333-12.334c2.931-2.933 2.931-7.687-.001-10.619z" fill="#88ba31"/>
      </g>
      <path d="m98.668 309.904c2.932-2.933 2.932-7.686 0-10.618-2.932-2.931-7.686-2.931-10.617 0l-.911.911v-20.668c0-4.147-3.361-7.508-7.508-7.508s-7.508 3.361-7.508 7.508v64.223l-9.453-9.453c-2.932-2.931-7.686-2.931-10.617 0-2.932 2.933-2.932 7.686 0 10.618l20.071 20.07v76.862c0 4.147 3.361 7.508 7.508 7.508s7.508-3.361 7.508-7.508v-79.97c0-.001 0-.003 0-.005v-40.442z" fill="#88ba31"/>
      <g>
        <g>
          <path d="m504.492 454.266h-496.984c-4.146 0-7.508-3.361-7.508-7.508s3.361-7.508 7.508-7.508h496.984c4.147 0 7.508 3.361 7.508 7.508s-3.361 7.508-7.508 7.508z" fill="#0a5b36"/>
        </g>
      </g>
    </g>
  </svg>
</svg>
